<svg width="24" height="24" viewBox="0 0 24 24" fill="none" xmlns="http://www.w3.org/2000/svg">
<g clip-path="url(#clip0_3247_6709)">
<path fill-rule="evenodd" clip-rule="evenodd" d="M17.1855 6.8146C17.4458 7.07495 17.4458 7.49706 17.1854 7.75741L12.9428 12L17.1854 16.2427C17.4458 16.503 17.4458 16.9252 17.1855 17.1855C16.9251 17.4459 16.503 17.4459 16.2426 17.1855L12 12.9429L7.75734 17.1855C7.49698 17.4459 7.07493 17.4458 6.81458 17.1855C6.55423 16.9251 6.55417 16.5031 6.81453 16.2427L11.0572 12L6.81455 7.75741C6.5542 7.49706 6.5542 7.07495 6.81455 6.8146C7.0749 6.55425 7.49701 6.55425 7.75736 6.8146L12 11.0572L16.2426 6.8146C16.503 6.55425 16.9251 6.55425 17.1855 6.8146Z" fill="black"/>
</g>
<defs>
<clipPath id="clip0_3247_6709">
<rect width="16" height="16" fill="white" transform="translate(12 0.686523) rotate(45)"/>
</clipPath>
</defs>
</svg>
